<?xml version="1.0" encoding="utf-8"?>
<!-- Generator: Adobe Illustrator 27.3.1, SVG Export Plug-In . SVG Version: 6.00 Build 0)  -->
<svg version="1.1" id="Layer_1" xmlns="http://www.w3.org/2000/svg" xmlns:xlink="http://www.w3.org/1999/xlink" x="0px" y="0px"
	 viewBox="0 0 2000 1600" style="enable-background:new 0 0 2000 1600;" xml:space="preserve">
<style type="text/css">
	.st0{fill:#EC7007;}
	.st1{fill:#0D1E25;}
</style>
<g>
	<path class="st0" d="M599,711.1L335.2,479.8c-5.7-5-13-7.8-20.6-7.8c-7.6,0-15,2.8-20.7,7.9l-262.3,232c-7.4,6.6-11.7,16-11.7,25.9
		v356.1c0,19.4,15.7,35,35,35h520.8c19.4,0,35-15.7,35-35V737C610.8,727.1,606.5,717.6,599,711.1z M519.5,1027.4
		c0,6.5-5.3,11.8-11.8,11.8h-258H123c-6.5,0-11.8-5.3-11.8-11.8v-6.9l101.4-94c1.3-1.2,3.2-1.2,4.5,0l71.3,66.5
		c16.5,15.4,42.6,13,56-5.1l143.2-193c8.6-11.5,6.5-27.7-4.6-36.8c-10.5-8.6-25.8-8-35.6,1.4L317.7,884.3c-3.2,3.1-8.3,3-11.4-0.1
		l-64.1-64.9c-12.6-12.8-33.4-12.4-45.6,0.8l-85.4,92.5V774.6c0-6.9,3-13.4,8.2-17.9l191.1-165.6c2.8-2.4,6.9-2.4,9.7,0l191.1,164.8
		c5.2,4.5,8.2,11.1,8.2,18V1027.4z"/>
	<g>
		<path class="st1" d="M785,832.3c12.5,0,23.1,1,31.7,2.9c8.6,2,15.7,4.8,21.2,8.7c5.5,3.8,9.5,8.4,12,13.8
			c2.4,5.4,3.7,11.5,3.7,18.3c0,9.9-2.6,17.7-7.9,23.2c-5.3,5.5-12.4,9.4-21.4,11.7c13.2,2.6,22.9,7.5,29.2,14.8
			c6.3,7.2,9.4,16.6,9.4,28.2c0,7-1.3,13.5-3.8,19.5c-2.5,6-6.6,11.2-12.1,15.6c-5.5,4.4-12.6,7.9-21.2,10.4
			c-8.6,2.5-19,3.8-31.3,3.8h-70.8V832.3H785z M761.1,901h30.8c6.7,0,12.3-1.5,17-4.6c4.6-3.1,7-8.2,7-15.4c0-7.3-2.4-12.3-7.3-15
			c-4.9-2.7-11.8-4-20.8-4h-26.6V901z M761.1,927.3v46.4H796c8.3,0,15.1-1.8,20.4-5.4c5.3-3.6,7.9-9.3,7.9-17.1
			c0-5-0.9-9.1-2.7-12.2c-1.8-3.1-4.1-5.5-6.8-7.2c-2.8-1.7-5.9-2.9-9.3-3.5c-3.4-0.6-6.8-1-10-1H761.1z"/>
		<path class="st1" d="M878.1,961.5v-87.9h35.6v79.6c0,8.3,1.5,14.2,4.5,17.7c3,3.5,7.9,5.3,14.5,5.3c7.6,0,13.9-2.7,18.7-8.1
			c4.8-5.4,7.2-12.5,7.2-21.5v-73h35.6v129.7h-34.7v-15.4c-4.7,6.3-10.3,11.1-16.8,14.2c-6.5,3.1-13.7,4.6-21.5,4.6
			c-6.2,0-11.9-0.9-17.2-2.7c-5.3-1.8-9.9-4.6-13.7-8.3c-3.8-3.7-6.8-8.4-9-14C879.2,976,878.1,969.3,878.1,961.5z"/>
		<path class="st1" d="M1017.3,834.5c0-2.9,0.6-5.6,1.7-8.1c1.1-2.4,2.7-4.6,4.6-6.3c2-1.8,4.2-3.2,6.8-4.3c2.6-1.1,5.3-1.6,8.1-1.6
			c2.8,0,5.4,0.5,7.9,1.6c2.5,1.1,4.8,2.5,6.7,4.3c2,1.8,3.5,3.9,4.6,6.3c1.1,2.4,1.7,5.1,1.7,8.1c0,5.5-2.1,10.3-6.2,14.2
			s-9.1,5.9-14.8,5.9c-2.8,0-5.5-0.5-8.1-1.6c-2.6-1.1-4.9-2.5-6.8-4.3c-2-1.8-3.5-3.9-4.6-6.3
			C1017.8,839.9,1017.3,837.3,1017.3,834.5z M1020.7,1003.3V873.6h35.6v129.7H1020.7z"/>
		<path class="st1" d="M1118.3,1003.3h-35.6V832.3h35.6V1003.3z"/>
		<path class="st1" d="M1195.7,870.2c7.8,0,14.6,1.3,20.4,3.8c5.8,2.5,10.8,6.1,15,10.9v-52.5h35.6v170.9h-34.7v-14.2
			c-4.7,6.2-10.4,10.7-17.1,13.4c-6.7,2.8-13.5,4.2-20.5,4.2c-8.6,0-16.4-1.7-23.4-5c-7-3.3-12.9-8-17.8-14
			c-4.9-6-8.7-13.2-11.4-21.6c-2.7-8.4-4-17.5-4-27.5c0-10.3,1.5-19.6,4.4-28c2.9-8.4,7-15.6,12.2-21.6c5.2-6,11.3-10.7,18.3-13.9
			C1179.8,871.8,1187.4,870.2,1195.7,870.2z M1204.5,978.1c8.8,0,15.8-3.2,21-9.6c5.2-6.4,7.8-16.5,7.8-30.2s-2.7-23.8-8.2-30.3
			c-5.5-6.5-12.3-9.8-20.6-9.8c-9.3,0-16.5,3.4-21.6,10.3c-5.1,6.8-7.7,16.8-7.7,29.8c0,13.2,2.5,23.1,7.6,29.8
			C1187.8,974.8,1195.1,978.1,1204.5,978.1z"/>
		<path class="st1" d="M1294.6,832.3h65c11.9,0,22.1,1.4,30.6,4.2c8.5,2.8,15.5,6.5,21,11.2c5.5,4.7,9.5,10.3,12.1,16.8
			c2.6,6.5,3.9,13.4,3.9,20.8c0,23.1-11.7,38.9-35.2,47.4l44.7,70.6H1393l-37.6-64.7H1332v64.7h-37.4V832.3z M1332,909.7h29.1
			c3.9,0,7.6-0.4,11-1.2c3.4-0.8,6.3-2.1,8.8-3.9c2.4-1.8,4.4-4.3,5.9-7.4c1.5-3.2,2.2-7,2.2-11.6c0-7.8-2.4-13.6-7.1-17.3
			c-4.7-3.7-11.3-5.6-19.8-5.6h-30V909.7z"/>
		<path class="st1" d="M1439.4,938.3c0-9.9,1.4-19.1,4.3-27.5c2.8-8.4,7-15.6,12.5-21.6c5.5-6,12.2-10.7,20.1-14
			c8-3.3,17.1-5,27.3-5c9.8,0,18.6,1.7,26.4,5c7.8,3.3,14.4,8.1,19.8,14.2c5.4,6.1,9.5,13.5,12.3,22.1c2.8,8.6,4.3,18.2,4.3,28.6
			v6.8h-90.3c0.6,10.7,3.7,18.8,9.3,24.2c5.5,5.4,12.9,8.1,22.2,8.1c7.3,0,13.3-1.6,18.1-4.8c4.7-3.2,8.5-7.3,11.2-12.3l28.6,13.9
			c-6.2,9.8-14.2,17.3-23.9,22.7c-9.8,5.4-21.7,8.1-35.6,8.1c-10.4,0-19.7-1.7-28-5.1c-8.2-3.4-15.2-8.2-20.9-14.3
			c-5.7-6.1-10.1-13.3-13.1-21.7C1440.9,957.2,1439.4,948.1,1439.4,938.3z M1476.1,924.2h54c-0.7-9.8-3.3-16.9-7.9-21.4
			c-4.6-4.5-10.9-6.7-18.7-6.7c-7.7,0-13.9,2.3-18.8,6.8C1479.7,907.5,1476.9,914.6,1476.1,924.2z"/>
		<path class="st1" d="M1577.6,966.9c0-12.2,4.1-22,12.3-29.4c8.2-7.4,22-12.3,41.4-14.8l27.1-3.4v-5.9c0-6.8-1.3-11.6-4-14.3
			c-2.7-2.7-7.9-4-15.5-4c-7.3,0-12.6,1.3-15.7,3.9c-3.2,2.6-4.9,7-5.2,13.2h-35.2c0.5-14.3,5.7-24.9,15.6-31.7
			c9.9-6.8,23.7-10.3,41.3-10.3c9.8,0,18.1,0.9,25,2.7c6.9,1.8,12.6,4.4,17,7.9c4.4,3.5,7.6,7.8,9.5,12.8c2,5,2.9,10.8,2.9,17.3v64
			c0,5.2,0,29,0,29l-34.8-0.7l-0.1-13.2c-4.7,6.2-10.4,10.5-17.1,12.9c-6.7,2.4-13.7,3.7-21,3.7c-6.8,0-13-1-18.4-2.9
			c-5.5-2-10-4.7-13.7-8.3c-3.7-3.6-6.5-7.8-8.4-12.6C1578.6,978.1,1577.6,972.7,1577.6,966.9z M1631.6,979.1
			c3.7,0,7.2-0.6,10.5-1.8c3.3-1.2,6.1-2.9,8.5-5c2.4-2.1,4.4-4.7,5.7-7.7c1.4-3,2.1-6.3,2.1-9.9V942l-18.3,2.4
			c-9.4,1.3-16.2,3.4-20.1,6.3c-4,2.9-6,7.2-6,12.7c0,4.7,1.4,8.5,4.3,11.4C1621.1,977.7,1625.6,979.1,1631.6,979.1z"/>
		<path class="st1" d="M1770.3,870.2c7.8,0,14.6,1.3,20.4,3.8c5.8,2.5,10.8,6.1,15,10.9v-52.5h35.6v170.9h-34.7v-14.2
			c-4.7,6.2-10.4,10.7-17.1,13.4c-6.7,2.8-13.5,4.2-20.5,4.2c-8.6,0-16.4-1.7-23.4-5c-7-3.3-12.9-8-17.8-14
			c-4.9-6-8.7-13.2-11.4-21.6c-2.7-8.4-4-17.5-4-27.5c0-10.3,1.5-19.6,4.4-28c2.9-8.4,7-15.6,12.2-21.6c5.2-6,11.3-10.7,18.3-13.9
			C1754.3,871.8,1762,870.2,1770.3,870.2z M1779.1,978.1c8.8,0,15.8-3.2,21-9.6c5.2-6.4,7.8-16.5,7.8-30.2s-2.7-23.8-8.2-30.3
			c-5.5-6.5-12.3-9.8-20.6-9.8c-9.3,0-16.5,3.4-21.6,10.3c-5.1,6.8-7.7,16.8-7.7,29.8c0,13.2,2.5,23.1,7.6,29.8
			C1762.4,974.8,1769.6,978.1,1779.1,978.1z"/>
		<path class="st1" d="M1891.4,873.6l29.2,72l21.1-72h38.6l-40.3,134.3c-2,6.2-4.2,11.8-6.6,17c-2.4,5.1-5.6,9.5-9.5,13.1
			c-3.9,3.6-8.7,6.3-14.3,8.3c-5.6,2-12.6,2.9-20.9,2.9c-3.6,0-6.9-0.2-9.9-0.5c-3-0.3-5.7-0.7-8.2-1.2v-24.9
			c3.1,0.3,5.4,0.5,6.8,0.5c1.5,0,3.1,0,4.9,0c4.4,0,8.1-0.3,11-1c2.9-0.7,5.3-1.7,7.2-3.2c1.9-1.5,3.3-3.5,4.4-6
			c1.1-2.5,2-5.7,2.8-9.6l0,0l-56.2-129.7H1891.4z"/>
	</g>
</g>
</svg>
